# xmcd
#
# Track frame offsets:
#	150
#	12451
#	27729
#	45745
#	58762
#	73410
#	85577
#	95539
#	109423
#	122058
#	140192
#	151471
#
# Disc length: 2289 seconds
#
# Revision: 0
# Processed by: cddbd v1.5.2PL0 Copyright (c) Steve Scherf et al.
# Submitted via: audiograbber 1.83.01
#
DISCID=b408ef0c
DTITLE=Ann-Christine Bärnsten - Country Style
DYEAR=1977
DGENRE=Country
TTITLE0=Country Girl
TTITLE1=Delta Down
TTITLE2=Lost in France
TTITLE3=Let me be there
TTITLE4=Till I can make it on my own
TTITLE5=Getting in my way
TTITLE6=One more memory
TTITLE7=The Seeker
TTITLE8=Im coming back to you
TTITLE9=Love you
TTITLE10=Silver threads and golden needles
TTITLE11=Me Sheri
EXTD=Only available as LP (vinyl)
EXTT0=
EXTT1=
EXTT2=
EXTT3=
EXTT4=
EXTT5=
EXTT6=
EXTT7=
EXTT8=
EXTT9=
EXTT10=
EXTT11=
PLAYORDER=
